<?xml version="1.0" encoding="utf-8" ?>
<svg xmlns="http://www.w3.org/2000/svg" xmlns:xlink="http://www.w3.org/1999/xlink" width="2817" height="813">
	<path fill="#0C64A5" d="M1225.2 266.5Q1254.06 265.562 1282.91 266.936C1282.99 267.081 1283.08 267.23 1283.17 267.373C1283.27 267.541 1283.39 267.698 1283.49 267.867C1286.69 273.201 1285.36 316.702 1283.44 324.344L1278.93 325C1259.49 325.787 1240.06 325.309 1220.61 325.168C1224.76 317.927 1220.57 280.327 1223.31 267.617L1225.2 266.5Z"/>
	<path fill="#0C64A5" d="M1823.23 266.499C1836.91 265.276 1863.12 263.38 1875.67 268.206C1879.65 272.434 1880.44 279.174 1880.85 284.764C1881.57 294.757 1882.69 314.013 1875.28 322.092C1872.43 325.197 1869.64 324.912 1865.75 325C1847.19 326.575 1828.41 325.415 1809.83 324.837C1821.74 310.21 1808.74 280.95 1817.04 268.821C1818.41 266.816 1820.95 266.949 1823.23 266.499Z"/>
	<path fill="#0C64A5" d="M1826.23 347.5C1841.63 347.185 1858.9 345.567 1873.93 349.281C1875.61 351.365 1876.38 353.338 1876.89 355.959C1881.41 379.033 1883.05 555.522 1877.12 564.331C1872.49 568.546 1865.63 568.017 1859.75 568.168C1846.26 570.568 1824.64 568.272 1810.61 567.978C1822.94 555.215 1813.13 416.415 1813.45 389.088C1813.59 376.282 1815.21 363.602 1817.61 351.03C1820.48 350.209 1823.45 348.652 1826.23 347.5Z"/>
	<path fill="#0C64A5" d="M194.49 274.5C199.632 274.612 204.766 274.261 209.899 273.986C212.524 307.361 211.973 341.54 211.98 375.027L210.168 568.49C252.487 568.386 294.74 569.336 336.406 577.533C376.912 585.501 402.061 598.452 425.468 633.334L414.5 629.938C336.179 605.948 257.097 601.395 175.832 601.51L176.168 275.118Q185.333 274.924 194.49 274.5Z"/>
	<path fill="#0C64A5" d="M1221.81 349.498C1237.11 346.96 1266.31 349.059 1282.54 349.544Q1283.52 351.302 1283.95 353.27C1286.11 363.168 1285 375.882 1285.09 386.125Q1285.21 430.066 1284.85 474.006C1284.78 512.909 1288.1 552.762 1284.58 591.502C1283.43 604.132 1281.7 618.91 1274.39 629.686C1263.98 645.049 1243.74 652.821 1226.24 656.168C1216.99 658.968 1191.78 660.859 1182.83 657.634C1159.28 649.142 1174.95 613.487 1169.93 603.44C1169.85 603.289 1169.76 603.147 1169.68 603C1176.06 603.049 1182.46 603.152 1188.84 602.969C1196.62 602.745 1208.09 601.931 1213.77 595.9C1214.22 595.413 1214.66 594.925 1215.06 594.391C1229.93 574.541 1221.04 430.171 1220.7 396.707C1220.57 384.787 1223.3 358.969 1221.81 349.498Z"/>
	<path fill="#0C64A5" d="M787.735 266.503C806.683 265.89 825.9 265.797 844.843 266.534C845.339 267.437 845.789 268.367 846.079 269.359C849.269 280.269 846.853 346.997 846.839 362.733C846.798 409.203 848.349 456.012 846.956 502.431C846.896 504.432 846.711 505.756 845.737 507.521C858.733 506.594 872.095 507.079 885.131 507.007C913.147 506.853 941.393 506.785 969.327 509.153C969.406 509.313 969.483 509.473 969.566 509.631C972.968 516.15 971.224 559.038 968.98 567.426C966.944 569.039 962.366 568.698 959.75 568.827C900.712 570.181 841.836 568.091 782.812 567.832Q780.578 542.094 780.212 516.261C779.766 489.232 780.925 462.166 780.996 435.13C781.044 417.193 778.228 274.611 782.888 267.894C783.795 266.587 786.212 266.723 787.735 266.503Z"/>
	<path fill="#0C64A5" d="M1068.23 346.502C1090.91 346.833 1113.6 348.094 1133.61 360.015C1151.65 370.76 1163.06 388.074 1168.15 408.214C1171.14 420.001 1172.31 432.291 1173.04 444.406C1174.01 460.584 1175.15 559.875 1170.25 568.117C1150.43 568.694 1131.27 569.527 1111.47 567.658C1111.45 567.419 1111.43 567.18 1111.4 566.942C1110.99 563.993 1107.35 560.162 1105.07 558.329C1087.55 561.194 1071.85 571.239 1054.12 572.476C1036.5 573.705 1015.36 566.23 1001.19 555.958C998.336 553.891 995.991 550.851 993.297 548.501C992.814 545.169 990.18 541.172 988.889 537.988C985.57 529.807 982.553 521.246 981.299 512.487Q981.098 510.986 980.971 509.477Q980.843 507.968 980.789 506.454Q980.735 504.941 980.755 503.427Q980.775 501.912 980.868 500.401Q980.961 498.889 981.128 497.384Q981.295 495.879 981.535 494.384Q981.774 492.888 982.087 491.407Q982.399 489.925 982.783 488.46Q983.167 486.995 983.622 485.55Q984.077 484.106 984.601 482.685Q985.126 481.265 985.719 479.871Q986.312 478.478 986.972 477.115Q987.632 475.752 988.358 474.422Q989.083 473.093 989.873 471.801Q990.662 470.508 991.513 469.256Q992.365 468.004 993.276 466.794C1005.41 450.706 1024.35 441.062 1044.11 438.321C1060.59 436.033 1095.01 440.295 1108.72 450.602C1108.93 450.004 1109.09 449.471 1109.21 448.848C1111.02 439.11 1106.98 424.724 1101.25 416.65C1081.91 389.436 1042.61 417.151 1013.48 412.281C1009.51 404.123 1006.82 396.969 1006.14 387.833C1005.53 379.757 1007.83 368.333 1004.71 360.989C1010.64 359.644 1016.63 356.757 1022.51 354.908Q1028.05 353.105 1033.71 351.673Q1039.36 350.241 1045.09 349.187Q1050.82 348.132 1056.62 347.461Q1062.41 346.789 1068.23 346.502ZM1060.44 480.498C1060.34 480.607 1060.25 480.717 1060.15 480.825C1053.36 488.11 1044.94 490.598 1045.3 502.462C1045.44 506.89 1047.56 510.615 1050.83 513.514C1057.46 519.402 1068.56 522.36 1077.3 521.707C1080.84 521.442 1085.06 520.783 1088.35 519.499C1093.8 518.111 1102.06 511.067 1104.86 506.156C1106.9 502.576 1107.66 498.396 1106.52 494.394C1105.17 489.692 1101.39 486.22 1097.19 483.98C1086.13 478.094 1072.43 479.271 1060.44 480.498Z"/>
	<path fill="#0C64A5" d="M1981.2 265.5C2029.61 264.02 2077.91 266.094 2126.31 266.49C2128.22 267.979 2129.56 270.388 2130.42 272.628C2135.77 286.515 2133.43 310.75 2127.5 324.204C2121.77 337.186 2073.82 376.384 2060.25 381.639C2072.58 382.479 2085.74 386.197 2096.97 391.19C2119.44 401.174 2138.28 418.504 2147.09 441.769C2155.84 464.861 2154.55 491.566 2144.42 514.002C2133.07 539.134 2111.24 557.587 2085.66 567.207C2051.91 579.903 1999.94 576.589 1966.73 560.934C1958.98 557.28 1953.88 548.922 1945.6 545.223L1945.28 545.083C1942.5 540.203 1926.49 531.797 1921.01 529.662C1937.18 522.34 1951.56 498.193 1960.53 483.317C1990.06 494.195 2003.86 518.129 2039.42 515.591C2053.63 514.577 2068.01 509.204 2077.47 498.18C2083.6 491.035 2087.07 482.095 2086.18 472.587C2085.33 463.614 2080.56 455.597 2073.67 449.918C2053.19 433.016 2025.2 437.333 2000.86 439.618C1997.49 428.055 1980.32 404.752 1969.9 398.266C1971.55 397.52 1973.02 396.651 1974.44 395.533C1984 388.039 2037.1 339.942 2038.29 330.168C2005.3 330.222 1972.51 330.154 1939.55 328.678C1939.64 328.587 1939.73 328.499 1939.82 328.404C1939.96 328.245 1940.09 328.078 1940.22 327.916C1940.44 327.654 1940.67 327.396 1940.88 327.122C1947.24 318.641 1943.4 293.844 1943.62 282.965C1943.71 278.917 1945.15 274.592 1944.54 270.631C1956.2 266.252 1968.88 266.274 1981.2 265.5Z"/>
	<path fill="#0C64A5" d="M2527.23 265.5C2548.95 265.35 2622.9 263.033 2639.4 268.474C2645.01 274.423 2644.4 285.724 2644.44 293.453C2644.51 303.405 2645.23 320.213 2637.72 327.804C2614.27 334.86 2547.79 328.872 2519.48 329.041C2522.7 333.365 2523.81 339.665 2524.12 344.956C2524.5 351.284 2523.87 360.207 2519.49 365.168Q2534.52 364.956 2549.53 365.847C2582.45 367.859 2614.38 376.861 2636.87 402.419C2654.83 422.82 2662.78 449.426 2661.02 476.372Q2660.95 477.609 2660.85 478.844Q2660.75 480.079 2660.61 481.311Q2660.48 482.543 2660.32 483.771Q2660.16 484.999 2659.96 486.223Q2659.77 487.447 2659.55 488.666Q2659.32 489.884 2659.07 491.097Q2658.82 492.31 2658.53 493.516Q2658.25 494.722 2657.94 495.92Q2657.62 497.119 2657.28 498.309Q2656.93 499.5 2656.56 500.681Q2656.19 501.863 2655.79 503.035Q2655.38 504.207 2654.95 505.368Q2654.52 506.53 2654.06 507.68Q2653.6 508.83 2653.11 509.969Q2652.62 511.107 2652.11 512.234Q2651.59 513.36 2651.05 514.473Q2650.5 515.585 2649.93 516.684Q2649.36 517.783 2648.76 518.868Q2648.16 519.952 2647.53 521.021Q2646.91 522.091 2646.25 523.144Q2645.6 524.197 2644.92 525.234Q2644.24 526.27 2643.54 527.29Q2642.84 528.309 2642.11 529.311Q2641.38 530.313 2640.62 531.296Q2639.87 532.279 2639.09 533.243Q2638.31 534.207 2637.51 535.152Q2636.71 536.096 2635.88 537.021Q2635.06 537.945 2634.21 538.848Q2633.36 539.752 2632.49 540.634Q2631.62 541.516 2630.73 542.376Q2629.84 543.236 2628.93 544.074Q2628.01 544.911 2627.08 545.726C2600.8 568.691 2565.39 576.622 2531.25 574.302C2505.75 572.136 2460.48 562.537 2443.52 543.117C2440.77 539.968 2438.87 536.13 2439.22 531.86C2440.53 516.2 2460.16 499.845 2471.14 490.381L2471.5 490.063C2499.43 493.256 2523.7 518.219 2557.24 513.814C2568.55 512.328 2577.56 506.313 2584.37 497.302C2591.82 487.432 2596.68 474.416 2594.83 461.905C2593.37 452 2586 441.083 2577.97 435.132C2554.15 417.478 2519.72 433.641 2493.68 437.355C2485.72 438.491 2476.73 438.609 2470.07 433.414C2462.75 427.711 2460.58 417.467 2459.65 408.719C2457.77 390.984 2455.42 279.917 2462.28 271.366C2473.74 264.011 2512.11 266.555 2527.23 265.5Z"/>
	<path fill="#0C64A5" d="M2300.23 263.501C2316.55 262.72 2333.52 263.618 2349.55 266.851C2363.28 269.619 2384.04 275.444 2392.1 288.002C2394.45 291.67 2395.88 295.323 2394.98 299.673C2395.37 301.819 2395.3 303.586 2394.54 305.651C2390.12 317.671 2374.21 335.111 2362.84 340.518C2362.4 340.03 2361.96 339.56 2361.47 339.119C2349.04 327.889 2323.79 323.961 2307.67 324.748C2264.69 326.846 2261.08 346.424 2251.19 381.069C2249.95 385.41 2248.37 391.675 2245.19 395.006C2245.06 395.142 2244.93 395.274 2244.79 395.407C2252.17 393.576 2259.23 389.16 2265.89 385.581C2290.7 372.24 2310.91 365.95 2339.07 373.448Q2340.27 373.764 2341.46 374.108Q2342.66 374.453 2343.84 374.827Q2345.02 375.201 2346.2 375.604Q2347.37 376.007 2348.53 376.438Q2349.7 376.87 2350.85 377.33Q2352.01 377.79 2353.15 378.277Q2354.29 378.765 2355.42 379.281Q2356.55 379.797 2357.66 380.34Q2358.78 380.883 2359.88 381.454Q2360.98 382.024 2362.07 382.621Q2363.16 383.219 2364.23 383.842Q2365.31 384.466 2366.36 385.116Q2367.42 385.765 2368.46 386.441Q2369.5 387.116 2370.53 387.817Q2371.55 388.518 2372.56 389.244Q2373.57 389.969 2374.56 390.719Q2375.55 391.469 2376.52 392.243Q2377.49 393.018 2378.44 393.815Q2379.39 394.613 2380.32 395.434Q2381.25 396.254 2382.16 397.097Q2383.07 397.941 2383.96 398.806Q2384.85 399.671 2385.72 400.558Q2386.59 401.445 2387.44 402.353Q2388.28 403.26 2389.11 404.189Q2389.93 405.117 2390.73 406.065Q2391.54 407.013 2392.31 407.981Q2393.09 408.948 2393.84 409.935Q2394.6 410.921 2395.33 411.925Q2396.06 412.93 2396.76 413.952Q2397.47 414.974 2398.15 416.013Q2398.83 417.052 2399.48 418.107Q2400.13 419.162 2400.76 420.233Q2401.79 421.998 2402.73 423.81Q2403.67 425.622 2404.52 427.477Q2405.37 429.332 2406.13 431.225Q2406.9 433.118 2407.57 435.046Q2408.24 436.973 2408.82 438.931Q2409.4 440.888 2409.89 442.871Q2410.37 444.854 2410.76 446.857Q2411.15 448.861 2411.45 450.881Q2411.74 452.901 2411.94 454.933Q2412.14 456.964 2412.24 459.003Q2412.34 461.042 2412.34 463.084Q2412.34 465.125 2412.25 467.164Q2412.16 469.203 2411.96 471.236Q2411.77 473.268 2411.48 475.289Q2411.2 477.31 2410.81 479.315Q2410.43 481.32 2409.95 483.304C2408.56 488.889 2405.84 493.9 2404.36 499.501C2404.87 500.615 2405.37 501.827 2405.46 503.061C2406.26 513.727 2394.62 529.209 2388.21 536.678Q2387.29 537.735 2386.35 538.769Q2385.4 539.802 2384.44 540.813Q2383.47 541.824 2382.47 542.81Q2381.48 543.797 2380.46 544.759Q2379.45 545.721 2378.41 546.658Q2377.37 547.595 2376.3 548.506Q2375.24 549.417 2374.16 550.303Q2373.07 551.188 2371.97 552.046Q2370.86 552.904 2369.74 553.736Q2368.61 554.567 2367.46 555.37Q2366.32 556.173 2365.15 556.949Q2363.99 557.724 2362.8 558.47Q2361.62 559.217 2360.41 559.934Q2359.21 560.651 2357.99 561.339Q2356.77 562.027 2355.54 562.685Q2354.3 563.343 2353.05 563.97Q2351.8 564.598 2350.53 565.194Q2349.27 565.791 2347.99 566.357Q2346.71 566.922 2345.41 567.456Q2344.12 567.991 2342.81 568.493Q2341.51 568.996 2340.19 569.466Q2338.87 569.936 2337.54 570.375Q2336.21 570.813 2334.87 571.218Q2333.53 571.624 2332.18 571.996Q2330.83 572.369 2329.47 572.709Q2328.12 573.048 2326.75 573.355Q2325.38 573.661 2324.01 573.934Q2322.64 574.207 2321.26 574.447Q2319.88 574.686 2318.5 574.891Q2317.11 575.097 2315.72 575.269Q2314.33 575.441 2312.94 575.578Q2311.55 575.716 2310.15 575.82Q2308.77 575.93 2307.38 576.007Q2306 576.083 2304.61 576.125Q2303.23 576.167 2301.84 576.174Q2300.45 576.182 2299.07 576.155Q2297.68 576.128 2296.29 576.067Q2294.91 576.006 2293.52 575.911Q2292.14 575.815 2290.76 575.686Q2289.38 575.556 2288 575.393Q2286.63 575.229 2285.25 575.031Q2283.88 574.833 2282.51 574.602Q2281.15 574.37 2279.78 574.105Q2278.42 573.839 2277.07 573.54Q2275.71 573.241 2274.37 572.909Q2273.02 572.577 2271.68 572.211Q2270.35 571.845 2269.02 571.447Q2267.69 571.048 2266.37 570.617Q2265.05 570.185 2263.75 569.721Q2262.44 569.258 2261.15 568.761Q2259.85 568.265 2258.57 567.737Q2257.29 567.209 2256.02 566.65Q2254.75 566.09 2253.49 565.5Q2252.24 564.909 2251 564.287Q2249.76 563.666 2248.54 563.013Q2247.31 562.361 2246.1 561.679Q2244.9 560.997 2243.71 560.285Q2242.52 559.573 2241.34 558.832Q2240.17 558.091 2239.02 557.321Q2237.87 556.551 2236.73 555.753Q2235.6 554.955 2234.48 554.128Q2233.37 553.302 2232.28 552.449Q2231.18 551.596 2230.11 550.716Q2229.04 549.835 2227.99 548.929C2195.95 521.17 2183.92 479.738 2181.12 438.83C2178.02 393.329 2185.25 339.24 2216.27 303.85C2237.18 279.989 2268.87 265.636 2300.23 263.501ZM2284.25 427.5C2275.88 428.77 2265.76 436.712 2260.77 443.474C2253.64 453.125 2251.55 466.146 2253.4 477.828Q2253.56 478.931 2253.78 480.024Q2254 481.117 2254.27 482.198Q2254.55 483.279 2254.87 484.345Q2255.2 485.411 2255.58 486.46Q2255.96 487.508 2256.39 488.536Q2256.82 489.564 2257.3 490.569Q2257.78 491.575 2258.32 492.555Q2258.85 493.535 2259.43 494.487Q2260.01 495.439 2260.63 496.361Q2261.26 497.283 2261.93 498.173Q2262.6 499.063 2263.32 499.918Q2264.03 500.773 2264.79 501.591Q2265.55 502.409 2266.35 503.189Q2267.14 503.968 2267.98 504.707Q2268.81 505.445 2269.68 506.141Q2270.56 506.837 2271.46 507.489C2281.7 514.845 2293.55 516.945 2305.87 514.834C2307.49 514.556 2308.94 514.254 2310.41 513.5C2322.03 511.072 2332.87 504.9 2339.51 494.83C2345.4 485.883 2347.21 474.948 2345.03 464.504Q2344.78 463.35 2344.47 462.209Q2344.17 461.069 2343.8 459.944Q2343.44 458.82 2343.03 457.715Q2342.61 456.609 2342.14 455.526Q2341.67 454.442 2341.15 453.382Q2340.63 452.323 2340.05 451.29Q2339.48 450.257 2338.86 449.253Q2338.24 448.25 2337.57 447.278Q2336.89 446.306 2336.18 445.367Q2335.46 444.429 2334.7 443.527Q2333.94 442.625 2333.13 441.761Q2332.32 440.897 2331.48 440.073Q2330.63 439.249 2329.75 438.468Q2328.86 437.686 2327.94 436.949Q2327.02 436.212 2326.06 435.52Q2325.1 434.829 2324.11 434.185C2311.65 426.047 2298.54 425.927 2284.25 427.5Z"/>
	<path fill="#0C64A5" d="M1699.2 344.5C1712.29 344.087 1724.84 346.232 1735.72 353.917C1750.77 364.545 1758.21 380.534 1761.22 398.285C1764.96 420.333 1772.03 550.718 1759.91 567.709C1741.94 569.547 1722.66 568.09 1704.58 567.799C1704.82 567.116 1705.06 566.388 1705.15 565.669C1706.66 554.261 1704.94 536.267 1704.93 523.919C1704.92 496.228 1711.08 436.061 1694.81 413.843C1691.06 408.726 1685.92 405.35 1679.6 404.46C1665.99 402.542 1654.35 410.648 1644.16 418.463C1643.67 423.594 1642.29 428.777 1641.66 433.94C1640.23 445.413 1639.73 456.924 1639.54 468.477C1639.31 483.013 1643.2 560.828 1639.58 567.795C1619.71 568.595 1599.57 567.989 1579.67 568C1580.17 567.179 1580.47 566.375 1580.74 565.447C1582.9 557.809 1580.91 526.297 1580.96 515.901C1581.1 490.12 1584.14 464.528 1581.28 438.771C1580.38 430.685 1578.21 421.848 1574.19 414.715C1570.98 409.005 1565.82 403.664 1559.29 402.001C1546.78 398.815 1535.48 409.788 1525.57 415.535C1526.3 418.928 1519.82 444.981 1519.3 451.442C1517.21 477.59 1518.16 504.269 1518.8 530.455C1518.98 537.815 1521.37 562.2 1518.01 568L1503.75 568.168L1457.16 568C1460.41 557.433 1459.9 452.502 1458.21 435.728C1457.48 428.483 1456.24 420.769 1452.79 414.254C1449.92 408.852 1445.84 406.322 1440.07 404.64C1425.89 400.507 1413.73 407.711 1401.7 414.116C1402.51 417.991 1397.67 446.853 1397.29 454.253C1396.51 469.475 1399.16 563.675 1396.84 568.488Q1365.65 568.739 1334.47 567.794C1337.08 562.057 1335.19 550.858 1334.96 544.5Q1332.52 476.069 1334.14 407.615C1334.44 395.187 1337.63 359.814 1334.69 350.255C1351.85 350.404 1369.59 345.336 1386.74 348.538C1390.56 349.251 1395.48 350.558 1397.68 354.081C1399.28 356.634 1399.55 360.761 1398.92 363.654C1408.85 361.575 1417.5 356.631 1426.56 352.303C1444.11 343.913 1465.24 343.667 1483.6 349.873C1492.79 352.978 1510.1 361.418 1514.55 370.38C1518.22 368.823 1521.68 365.832 1525.07 363.678C1532.96 358.657 1541.04 354.014 1549.83 350.713C1568.72 343.612 1589.96 342.346 1608.61 350.877C1615.4 353.983 1631.73 363.065 1634.34 370.087C1639.38 368.237 1644.6 364.004 1649.36 361.262C1665.53 351.957 1680.65 346.767 1699.2 344.5Z"/>
	<path fill="#0C64A5" d="M674.803 226.304C676.428 226.353 677.707 226.693 679.25 227.188C684.847 238.769 681.922 499.466 681.832 531.961C592.199 556.186 545.286 574.211 482.985 645.484C479.291 639.257 475.588 633.053 471.45 627.107C433.229 572.199 385.203 548.972 320.751 537.379C295.72 534.14 270.438 532.656 245.27 530.909C240.944 432.379 243.534 334.225 243.49 235.674C273.132 233.949 302.965 235.119 332.645 235.131C387.687 235.155 442.799 235.257 497.832 234.49L498.005 273.097Q585.834 247.548 674.803 226.304ZM278 271.168L277.49 422.378C277.482 447.432 276.866 472.672 277.933 497.702C339.305 506.457 401.02 518.566 463.168 519.279Q461.898 395.225 462.168 271.168L278 271.168ZM642.495 270.105C594.563 283.205 546.253 297.929 497.51 307.663C497.414 337.075 492.991 558.261 499.129 573.232L500.54 573.711L502.45 572.677C548.005 540.192 596.456 521.745 649.522 505.231C648.807 477.964 652.287 278.625 646.25 270.17C644.771 269.791 643.967 269.638 642.495 270.105Z"/>
	<path fill="#0C64A5" d="M605.038 389.393C606.953 389.372 608.47 389.834 610.275 390.384C611.674 391.98 612.831 393.441 613.285 395.561C614.325 400.408 612.703 405.608 610.013 409.643C598.99 426.176 561.58 430.642 542.967 434.479C540.023 434.054 538.974 433.928 536.596 432.152C532.621 424.738 534.717 415.998 535.527 407.959Q569.751 396.687 605.038 389.393Z"/>
	<path fill="#0C64A5" d="M602.113 448.183C603.401 448.067 604.736 447.914 606.03 447.958C608.523 448.042 610.444 448.554 612.1 450.532C616.525 455.82 614.331 468.574 613.972 475.145Q580.668 484.012 547.572 493.624C544.62 493.698 541.253 493.393 538.691 491.812C536.44 490.423 534.753 488.339 534.158 485.732C533.264 481.811 535.015 477.346 537.106 474.093C548.192 456.845 582.904 452.577 602.113 448.183Z"/>
	<path fill="#0C64A5" d="M606.585 328.123C608.348 328.068 609.299 328.144 610.77 329.16C615.365 336.568 613.892 348.179 613.832 356.636Q578.268 366.712 542.404 375.659C540.027 375.261 537.975 375.333 536.36 373.256C531.708 367.27 534.13 354.317 534.634 347.14C558.693 341.163 582.619 334.473 606.585 328.123Z"/>
	<path fill="#0C64A5" d="M321.573 438.074C355.31 442.741 390.202 440.104 424.096 443.053C423.319 452.582 423.265 462.273 422.935 471.832C389.093 472.05 354.393 472.102 321.407 463.652C320.105 455 320.805 446.719 321.573 438.074Z"/>
	<path fill="#0C64A5" d="M320.544 380.018C336.378 381.362 414.223 379.827 421.241 385.13C424.681 393.057 423.213 403.685 422.894 412.168L382.449 412.178C373.317 412.155 328.037 412.304 322.734 406.613C318.435 401.998 320.324 386.26 320.544 380.018Z"/>
	<path fill="#0C64A5" d="M321.091 322.168Q371.976 322.947 422.865 323C422.906 333.238 423.067 343.489 422.625 353.72C389.066 354.546 355.816 356.592 322.622 350.423C320.174 340.78 320.246 332.041 321.091 322.168Z"/>
</svg>
